# xmcd
#
# Track frame offsets:
#	150
#	14214
#	27962
#	44078
#	62826
#	77952
#	93069
#	106156
#	122586
#	132432
#	143124
#	163284
#
# Disc length: 2372 seconds
#
# Revision: 0
# Processed by: cddbd v1.5.1PL0 Copyright (c) Steve Scherf et al.
# Submitted via: dBpowerAMP V4.0
#
DISCID=a909420c
DTITLE=Jennifer Lynn - Leavin'
DYEAR=2004
DGENRE=Country
TTITLE0=Leavin' On Sunday
TTITLE1=Sittin' At The Station
TTITLE2=Chasing Shadows
TTITLE3=Kiss Me Once
TTITLE4=Whiskey On Your Breath
TTITLE5=Tired
TTITLE6=Bigger Skies Of Blue
TTITLE7=Good Hearted Woman
TTITLE8=Honky Tonk Girl
TTITLE9=Pucker Up
TTITLE10=A Little Less Leavin'
TTITLE11=I Will Get Over You
EXTD=Jennifer Lynn's first albumn
EXTT0=
EXTT1=
EXTT2=
EXTT3=
EXTT4=
EXTT5=
EXTT6=
EXTT7=
EXTT8=
EXTT9=
EXTT10=
EXTT11=
PLAYORDER=
